<?xml version="1.0" encoding="UTF-8" standalone="no"?>
<!DOCTYPE svg PUBLIC "-//W3C//DTD SVG 1.1//EN" "http://www.w3.org/Graphics/SVG/1.1/DTD/svg11.dtd">
<!-- Oprettet af Microsoft Visio, SVG-eksport Tegninger.svg Side-1 -->
<svg xmlns="http://www.w3.org/2000/svg" xmlns:xlink="http://www.w3.org/1999/xlink" xmlns:ev="http://www.w3.org/2001/xml-events"
		width="1.36783in" height="0.869806in" viewBox="0 0 98.4837 62.626" xml:space="preserve" color-interpolation-filters="sRGB"
		class="st4">
	<style type="text/css">
	<![CDATA[
		.st1 {fill:none;stroke:#c9c9c9;stroke-width:1}
		.st2 {fill:none;stroke:#000000;stroke-width:1}
		.st3 {stroke:#000000;stroke-linecap:round;stroke-linejoin:round;stroke-width:1}
		.st4 {fill:none;fill-rule:evenodd;font-size:12px;overflow:visible;stroke-linecap:square;stroke-miterlimit:3}
	]]>
	</style>

	<g>
		<title>Side-1</title>
		<g id="shape36-1" transform="translate(110.883,1) rotate(90)">
			<title>Ligebenet trapez.36</title>
			<path d="M0 62.63 L60.63 62.63 L40.99 27.18 L19.63 27.18 L0 62.63 Z" class="st1"/>
		</g>
		<g id="shape32-3" transform="translate(33.5243,-44.7123)">
			<title>Ark.32</title>
			<rect x="0" y="50.5448" width="18.6711" height="12.0813" class="st2"/>
		</g>
		<g id="shape33-5" transform="translate(40.3811,-25.1626)">
			<title>Ark.33</title>
			<rect x="0" y="50.5448" width="18.6711" height="12.0813" class="st2"/>
		</g>
		<g id="shape34-7" transform="translate(33.5243,-5.56893)">
			<title>Ark.34</title>
			<rect x="0" y="50.5448" width="18.6711" height="12.0813" class="st2"/>
		</g>
		<g id="shape35-9" transform="translate(80.532,-22.4627)">
			<title>Ark.35</title>
			<rect x="0" y="44.9046" width="16.9516" height="17.7215" class="st2"/>
		</g>
		<g id="shape37-11" transform="translate(12.8143,-25.1626)">
			<title>Ark.37</title>
			<rect x="0" y="50.5448" width="18.6711" height="12.0813" class="st2"/>
		</g>
		<g id="shape38-13" transform="translate(1,-44.7123)">
			<title>Ark.38</title>
			<rect x="0" y="50.5448" width="18.6711" height="12.0813" class="st2"/>
		</g>
		<g id="shape39-15" transform="translate(9.38596,-5.61286)">
			<title>Ark.39</title>
			<rect x="0" y="50.5448" width="18.6711" height="12.0813" class="st2"/>
		</g>
		<g id="shape40-17" transform="translate(2.96905,-50.444)">
			<title>Ark.40</title>
			<path d="M0 62.63 L10.18 62.63" class="st3"/>
		</g>
		<g id="shape41-20" transform="translate(14.7834,-50.444)">
			<title>Ark.41</title>
			<path d="M0 62.63 L2.3 62.63" class="st3"/>
		</g>
		<g id="shape42-23" transform="translate(14.7834,-29.3544)">
			<title>Ark.42</title>
			<path d="M0 62.63 L7.88 62.63" class="st3"/>
		</g>
		<g id="shape43-26" transform="translate(26.5977,-29.3544)">
			<title>Ark.43</title>
			<path d="M0 62.63 L2.3 62.63" class="st3"/>
		</g>
		<g id="shape44-29" transform="translate(43.1671,-29.3544)">
			<title>Ark.44</title>
			<path d="M0 62.63 L10.18 62.63" class="st3"/>
		</g>
		<g id="shape45-32" transform="translate(54.9814,-29.3544)">
			<title>Ark.45</title>
			<path d="M0 62.63 L2.3 62.63" class="st3"/>
		</g>
		<g id="shape46-35" transform="translate(36.1079,-49.6667)">
			<title>Ark.46</title>
			<path d="M0 62.63 L7.88 62.63" class="st3"/>
		</g>
		<g id="shape47-38" transform="translate(50.2264,-49.6667)">
			<title>Ark.47</title>
			<path d="M0 62.63 L1.48 62.63" class="st3"/>
		</g>
		<g id="shape48-41" transform="translate(36.443,-10.5447)">
			<title>Ark.48</title>
			<path d="M0 62.63 L7.88 62.63" class="st3"/>
		</g>
		<g id="shape49-44" transform="translate(11.6623,-10.372)">
			<title>Ark.49</title>
			<path d="M0 62.63 L7.88 62.63" class="st3"/>
		</g>
		<g id="shape50-47" transform="translate(21.6233,-10.372)">
			<title>Ark.50</title>
			<path d="M0 62.63 L4.16 62.63" class="st3"/>
		</g>
		<g id="shape51-50" transform="translate(81.7312,-35.2616)">
			<title>Ark.51</title>
			<path d="M0 62.63 L7.88 62.63" class="st3"/>
		</g>
		<g id="shape52-53" transform="translate(93.5455,-35.2616)">
			<title>Ark.52</title>
			<path d="M0 62.63 L2.3 62.63" class="st3"/>
		</g>
		<g id="shape53-56" transform="translate(81.7312,-28.249)">
			<title>Ark.53</title>
			<path d="M0 62.63 L10.18 62.63" class="st3"/>
		</g>
		<g id="shape54-59" transform="translate(93.5455,-28.249)">
			<title>Ark.54</title>
			<path d="M0 62.63 L2.3 62.63" class="st3"/>
		</g>
		<g id="shape55-62" transform="translate(81.7312,-31.3234)">
			<title>Ark.55</title>
			<path d="M0 62.63 L7.88 62.63" class="st3"/>
		</g>
		<g id="shape56-65" transform="translate(95.8497,-31.3234)">
			<title>Ark.56</title>
			<path d="M0 62.63 L1.48 62.63" class="st3"/>
		</g>
		<g id="shape57-68" transform="translate(81.7312,-25.4163)">
			<title>Ark.57</title>
			<path d="M0 62.63 L7.88 62.63" class="st3"/>
		</g>
		<g id="shape58-71" transform="translate(91.6922,-25.4163)">
			<title>Ark.58</title>
			<path d="M0 62.63 L4.16 62.63" class="st3"/>
		</g>
	</g>
</svg>
