<?xml version="1.0" encoding="UTF-8" standalone="no"?>
<!DOCTYPE svg PUBLIC "-//W3C//DTD SVG 1.1//EN" "http://www.w3.org/Graphics/SVG/1.1/DTD/svg11.dtd">
<!-- Oprettet af Microsoft Visio, SVG-eksport Tegninger.svg Side-1 -->
<svg xmlns="http://www.w3.org/2000/svg" xmlns:xlink="http://www.w3.org/1999/xlink" xmlns:ev="http://www.w3.org/2001/xml-events"
		width="2.35566in" height="2.02426in" viewBox="0 0 169.607 145.746" xml:space="preserve" color-interpolation-filters="sRGB"
		class="st17">
	<style type="text/css">
	<![CDATA[
		.st1 {fill:none;stroke:#000000;stroke-width:1}
		.st2 {fill:none;stroke:#538135;stroke-width:1}
		.st3 {stroke:#538135;stroke-width:1}
		.st4 {stroke:#000000;stroke-linecap:round;stroke-linejoin:round;stroke-width:1}
		.st5 {fill:none;stroke:#c55a11;stroke-width:1}
		.st6 {stroke:#c55a11;stroke-width:1}
		.st7 {fill:none;stroke:#2e75b5;stroke-width:1}
		.st8 {stroke:#2e75b5;stroke-width:1}
		.st9 {fill:none;stroke:#bf9000;stroke-width:1}
		.st10 {stroke:#bf9000;stroke-width:1}
		.st11 {fill:none;stroke:#c9c9c9;stroke-width:1}
		.st12 {stroke:#c9c9c9;stroke-linecap:round;stroke-linejoin:round;stroke-width:2.25}
		.st13 {stroke:#538135;stroke-linecap:round;stroke-linejoin:round;stroke-width:2.25}
		.st14 {stroke:#305497;stroke-linecap:round;stroke-linejoin:round;stroke-width:2.25}
		.st15 {stroke:#bf9000;stroke-linecap:round;stroke-linejoin:round;stroke-width:2.25}
		.st16 {stroke:#c55a11;stroke-linecap:round;stroke-linejoin:round;stroke-width:2.25}
		.st17 {fill:none;fill-rule:evenodd;font-size:12px;overflow:visible;stroke-linecap:square;stroke-miterlimit:3}
	]]>
	</style>

	<g>
		<title>Side-1</title>
		<g id="shape13-1" transform="translate(108.771,-119.235)">
			<title>Ark.13</title>
			<rect x="0" y="120.235" width="24.4035" height="25.5118" class="st1"/>
		</g>
		<g id="shape14-3" transform="translate(115.303,-128.022)">
			<title>Cirkel</title>
			<path d="M0 140.08 A5.66929 5.66929 0 1 1 11.34 140.08 A5.66929 5.66929 0 0 1 0 140.08 Z" class="st2"/>
		</g>
		<g id="shape15-5" transform="translate(122.507,-119.575)">
			<title>Ark.15</title>
			<path d="M0 137.3 L3.71 139.09 L2.04 140.66 L2.49 145.75" class="st3"/>
		</g>
		<g id="shape16-8" transform="translate(119.128,-119.575) scale(-1,1)">
			<title>Ark.16</title>
			<path d="M0 137.3 L3.71 139.09 L2.04 140.66 L2.49 145.75" class="st3"/>
		</g>
		<g id="shape48-11" transform="translate(146.246,6.93036) rotate(90)">
			<title>Ark.48</title>
			<path d="M0 145.75 L130.39 145.75" class="st4"/>
		</g>
		<g id="shape50-14" transform="translate(144.204,-81.7874)">
			<title>Ark.50</title>
			<rect x="0" y="120.235" width="24.4035" height="25.5118" class="st1"/>
		</g>
		<g id="shape51-16" transform="translate(150.736,-90.5748)">
			<title>Cirkel.51</title>
			<path d="M0 140.08 A5.66929 5.66929 0 1 1 11.34 140.08 A5.66929 5.66929 0 0 1 0 140.08 Z" class="st5"/>
		</g>
		<g id="shape52-18" transform="translate(157.94,-82.1276)">
			<title>Ark.52</title>
			<path d="M0 137.3 L3.71 139.09 L2.04 140.66 L2.49 145.75" class="st6"/>
		</g>
		<g id="shape53-21" transform="translate(154.562,-82.1276) scale(-1,1)">
			<title>Ark.53</title>
			<path d="M0 137.3 L3.71 139.09 L2.04 140.66 L2.49 145.75" class="st6"/>
		</g>
		<g id="shape55-24" transform="translate(134.027,-41.3574)">
			<title>Ark.55</title>
			<rect x="0" y="120.235" width="24.4035" height="25.5118" class="st1"/>
		</g>
		<g id="shape56-26" transform="translate(140.559,-50.1447)">
			<title>Cirkel.56</title>
			<path d="M0 140.08 A5.66929 5.66929 0 1 1 11.34 140.08 A5.66929 5.66929 0 0 1 0 140.08 Z" class="st7"/>
		</g>
		<g id="shape57-28" transform="translate(147.763,-41.6975)">
			<title>Ark.57</title>
			<path d="M0 137.3 L3.71 139.09 L2.04 140.66 L2.49 145.75" class="st8"/>
		</g>
		<g id="shape58-31" transform="translate(144.384,-41.6975) scale(-1,1)">
			<title>Ark.58</title>
			<path d="M0 137.3 L3.71 139.09 L2.04 140.66 L2.49 145.75" class="st8"/>
		</g>
		<g id="shape60-34" transform="translate(105.494,-1)">
			<title>Ark.60</title>
			<rect x="0" y="120.235" width="24.4035" height="25.5118" class="st1"/>
		</g>
		<g id="shape61-36" transform="translate(112.026,-9.78738)">
			<title>Cirkel.61</title>
			<path d="M0 140.08 A5.66929 5.66929 0 1 1 11.34 140.08 A5.66929 5.66929 0 0 1 0 140.08 Z" class="st9"/>
		</g>
		<g id="shape62-38" transform="translate(119.23,-1.34013)">
			<title>Ark.62</title>
			<path d="M0 137.3 L3.71 139.09 L2.04 140.66 L2.49 145.75" class="st10"/>
		</g>
		<g id="shape63-41" transform="translate(115.852,-1.34013) scale(-1,1)">
			<title>Ark.63</title>
			<path d="M0 137.3 L3.71 139.09 L2.04 140.66 L2.49 145.75" class="st10"/>
		</g>
		<g id="shape73-44" transform="translate(7.58661,-92.2756)">
			<title>Ark.73</title>
			<rect x="0" y="120.235" width="24.4035" height="25.5118" class="st11"/>
		</g>
		<g id="shape74-46" transform="translate(9.31299,-110.701)">
			<title>Ark.74</title>
			<path d="M0 145.75 L11.34 145.75" class="st12"/>
		</g>
		<g id="shape75-49" transform="translate(26.3209,-110.701)">
			<title>Ark.75</title>
			<path d="M0 145.75 L3.32 145.75" class="st12"/>
		</g>
		<g id="shape76-52" transform="translate(9.31299,-100.606)">
			<title>Ark.76</title>
			<path d="M0 145.75 L14.66 145.75" class="st12"/>
		</g>
		<g id="shape77-55" transform="translate(26.3209,-100.606)">
			<title>Ark.77</title>
			<path d="M0 145.75 L3.32 145.75" class="st12"/>
		</g>
		<g id="shape78-58" transform="translate(9.31299,-105.032)">
			<title>Ark.78</title>
			<path d="M0 145.75 L11.34 145.75" class="st12"/>
		</g>
		<g id="shape79-61" transform="translate(29.6379,-105.032)">
			<title>Ark.79</title>
			<path d="M0 145.75 L2.12 145.75" class="st12"/>
		</g>
		<g id="shape80-64" transform="translate(9.31299,-96.5276)">
			<title>Ark.80</title>
			<path d="M0 145.75 L11.34 145.75" class="st12"/>
		</g>
		<g id="shape81-67" transform="translate(23.6528,-96.5276)">
			<title>Ark.81</title>
			<path d="M0 145.75 L5.99 145.75" class="st12"/>
		</g>
		<g id="shape129-70" transform="translate(7.58661,-60.811)">
			<title>Ark.129</title>
			<rect x="0" y="120.235" width="24.4035" height="25.5118" class="st11"/>
		</g>
		<g id="shape130-72" transform="translate(9.31299,-79.2362)">
			<title>Ark.130</title>
			<path d="M0 145.75 L11.34 145.75" class="st12"/>
		</g>
		<g id="shape131-75" transform="translate(26.3209,-79.2362)">
			<title>Ark.131</title>
			<path d="M0 145.75 L3.32 145.75" class="st12"/>
		</g>
		<g id="shape132-78" transform="translate(9.31299,-69.1409)">
			<title>Ark.132</title>
			<path d="M0 145.75 L14.66 145.75" class="st12"/>
		</g>
		<g id="shape133-81" transform="translate(26.3209,-69.1409)">
			<title>Ark.133</title>
			<path d="M0 145.75 L3.32 145.75" class="st12"/>
		</g>
		<g id="shape134-84" transform="translate(9.31299,-73.5669)">
			<title>Ark.134</title>
			<path d="M0 145.75 L11.34 145.75" class="st12"/>
		</g>
		<g id="shape135-87" transform="translate(29.6379,-73.5669)">
			<title>Ark.135</title>
			<path d="M0 145.75 L2.12 145.75" class="st12"/>
		</g>
		<g id="shape136-90" transform="translate(9.31299,-65.063)">
			<title>Ark.136</title>
			<path d="M0 145.75 L11.34 145.75" class="st12"/>
		</g>
		<g id="shape137-93" transform="translate(23.6528,-65.063)">
			<title>Ark.137</title>
			<path d="M0 145.75 L5.99 145.75" class="st12"/>
		</g>
		<g id="shape139-96" transform="translate(7.58661,-29.3465)">
			<title>Ark.139</title>
			<rect x="0" y="120.235" width="24.4035" height="25.5118" class="st11"/>
		</g>
		<g id="shape140-98" transform="translate(9.31299,-47.7717)">
			<title>Ark.140</title>
			<path d="M0 145.75 L11.34 145.75" class="st12"/>
		</g>
		<g id="shape141-101" transform="translate(26.3209,-47.7717)">
			<title>Ark.141</title>
			<path d="M0 145.75 L3.32 145.75" class="st12"/>
		</g>
		<g id="shape142-104" transform="translate(9.31299,-37.6763)">
			<title>Ark.142</title>
			<path d="M0 145.75 L14.66 145.75" class="st12"/>
		</g>
		<g id="shape143-107" transform="translate(26.3209,-37.6763)">
			<title>Ark.143</title>
			<path d="M0 145.75 L3.32 145.75" class="st12"/>
		</g>
		<g id="shape144-110" transform="translate(9.31299,-42.1024)">
			<title>Ark.144</title>
			<path d="M0 145.75 L11.34 145.75" class="st12"/>
		</g>
		<g id="shape145-113" transform="translate(29.6379,-42.1024)">
			<title>Ark.145</title>
			<path d="M0 145.75 L2.12 145.75" class="st12"/>
		</g>
		<g id="shape146-116" transform="translate(9.31299,-33.5984)">
			<title>Ark.146</title>
			<path d="M0 145.75 L11.34 145.75" class="st12"/>
		</g>
		<g id="shape147-119" transform="translate(23.6528,-33.5984)">
			<title>Ark.147</title>
			<path d="M0 145.75 L5.99 145.75" class="st12"/>
		</g>
		<g id="shape149-122" transform="translate(52.0778,-97.4153)">
			<title>Ark.149</title>
			<rect x="0" y="120.235" width="24.4035" height="25.5118" class="st11"/>
		</g>
		<g id="shape150-124" transform="translate(53.8041,-115.84)">
			<title>Ark.150</title>
			<path d="M0 145.75 L11.34 145.75" class="st13"/>
		</g>
		<g id="shape151-127" transform="translate(70.812,-115.84)">
			<title>Ark.151</title>
			<path d="M0 145.75 L3.32 145.75" class="st13"/>
		</g>
		<g id="shape152-130" transform="translate(53.8041,-105.745)">
			<title>Ark.152</title>
			<path d="M0 145.75 L14.66 145.75" class="st13"/>
		</g>
		<g id="shape153-133" transform="translate(70.812,-105.745)">
			<title>Ark.153</title>
			<path d="M0 145.75 L3.32 145.75" class="st13"/>
		</g>
		<g id="shape154-136" transform="translate(53.8041,-110.171)">
			<title>Ark.154</title>
			<path d="M0 145.75 L11.34 145.75" class="st13"/>
		</g>
		<g id="shape155-139" transform="translate(74.129,-110.171)">
			<title>Ark.155</title>
			<path d="M0 145.75 L2.12 145.75" class="st13"/>
		</g>
		<g id="shape156-142" transform="translate(53.8041,-101.667)">
			<title>Ark.156</title>
			<path d="M0 145.75 L11.34 145.75" class="st13"/>
		</g>
		<g id="shape157-145" transform="translate(68.144,-101.667)">
			<title>Ark.157</title>
			<path d="M0 145.75 L5.99 145.75" class="st13"/>
		</g>
		<g id="shape159-148" transform="translate(57.1929,-56.201)">
			<title>Ark.159</title>
			<rect x="0" y="120.235" width="24.4035" height="25.5118" class="st11"/>
		</g>
		<g id="shape160-150" transform="translate(58.9193,-74.6262)">
			<title>Ark.160</title>
			<path d="M0 145.75 L11.34 145.75" class="st14"/>
		</g>
		<g id="shape161-153" transform="translate(75.9272,-74.6262)">
			<title>Ark.161</title>
			<path d="M0 145.75 L3.32 145.75" class="st14"/>
		</g>
		<g id="shape162-156" transform="translate(58.9193,-64.5309)">
			<title>Ark.162</title>
			<path d="M0 145.75 L14.66 145.75" class="st14"/>
		</g>
		<g id="shape163-159" transform="translate(75.9272,-64.5309)">
			<title>Ark.163</title>
			<path d="M0 145.75 L3.32 145.75" class="st14"/>
		</g>
		<g id="shape164-162" transform="translate(58.9193,-68.9569)">
			<title>Ark.164</title>
			<path d="M0 145.75 L11.34 145.75" class="st14"/>
		</g>
		<g id="shape165-165" transform="translate(79.2442,-68.9569)">
			<title>Ark.165</title>
			<path d="M0 145.75 L2.12 145.75" class="st14"/>
		</g>
		<g id="shape166-168" transform="translate(58.9193,-60.453)">
			<title>Ark.166</title>
			<path d="M0 145.75 L11.34 145.75" class="st14"/>
		</g>
		<g id="shape167-171" transform="translate(73.2591,-60.453)">
			<title>Ark.167</title>
			<path d="M0 145.75 L5.99 145.75" class="st14"/>
		</g>
		<g id="shape169-174" transform="translate(47.7618,-20.7679)">
			<title>Ark.169</title>
			<rect x="0" y="120.235" width="24.4035" height="25.5118" class="st11"/>
		</g>
		<g id="shape170-176" transform="translate(49.4882,-39.1931)">
			<title>Ark.170</title>
			<path d="M0 145.75 L11.34 145.75" class="st15"/>
		</g>
		<g id="shape171-179" transform="translate(66.4961,-39.1931)">
			<title>Ark.171</title>
			<path d="M0 145.75 L3.32 145.75" class="st15"/>
		</g>
		<g id="shape172-182" transform="translate(49.4882,-29.0978)">
			<title>Ark.172</title>
			<path d="M0 145.75 L14.66 145.75" class="st15"/>
		</g>
		<g id="shape173-185" transform="translate(66.4961,-29.0978)">
			<title>Ark.173</title>
			<path d="M0 145.75 L3.32 145.75" class="st15"/>
		</g>
		<g id="shape174-188" transform="translate(49.4882,-33.5238)">
			<title>Ark.174</title>
			<path d="M0 145.75 L11.34 145.75" class="st15"/>
		</g>
		<g id="shape175-191" transform="translate(69.8131,-33.5238)">
			<title>Ark.175</title>
			<path d="M0 145.75 L2.12 145.75" class="st15"/>
		</g>
		<g id="shape176-194" transform="translate(49.4882,-25.0199)">
			<title>Ark.176</title>
			<path d="M0 145.75 L11.34 145.75" class="st15"/>
		</g>
		<g id="shape177-197" transform="translate(63.828,-25.0199)">
			<title>Ark.177</title>
			<path d="M0 145.75 L5.99 145.75" class="st15"/>
		</g>
		<g id="shape179-200" transform="translate(96.5689,-77.0879)">
			<title>Ark.179</title>
			<rect x="0" y="120.235" width="24.4035" height="25.5118" class="st11"/>
		</g>
		<g id="shape180-202" transform="translate(98.2953,-95.5131)">
			<title>Ark.180</title>
			<path d="M0 145.75 L11.34 145.75" class="st16"/>
		</g>
		<g id="shape181-205" transform="translate(115.303,-95.5131)">
			<title>Ark.181</title>
			<path d="M0 145.75 L3.32 145.75" class="st16"/>
		</g>
		<g id="shape182-208" transform="translate(98.2953,-85.4177)">
			<title>Ark.182</title>
			<path d="M0 145.75 L14.66 145.75" class="st16"/>
		</g>
		<g id="shape183-211" transform="translate(115.303,-85.4177)">
			<title>Ark.183</title>
			<path d="M0 145.75 L3.32 145.75" class="st16"/>
		</g>
		<g id="shape184-214" transform="translate(98.2953,-89.8438)">
			<title>Ark.184</title>
			<path d="M0 145.75 L11.34 145.75" class="st16"/>
		</g>
		<g id="shape185-217" transform="translate(118.62,-89.8438)">
			<title>Ark.185</title>
			<path d="M0 145.75 L2.12 145.75" class="st16"/>
		</g>
		<g id="shape186-220" transform="translate(98.2953,-81.3398)">
			<title>Ark.186</title>
			<path d="M0 145.75 L11.34 145.75" class="st16"/>
		</g>
		<g id="shape187-223" transform="translate(112.635,-81.3398)">
			<title>Ark.187</title>
			<path d="M0 145.75 L5.99 145.75" class="st16"/>
		</g>
	</g>
</svg>
